<mxfile host="app.diagrams.net" agent="Mozilla/5.0 (Windows NT 10.0; Win64; x64) AppleWebKit/537.36 (KHTML, like Gecko) Chrome/136.0.0.0 Safari/537.36" version="27.0.6">
  <diagram name="Page-1" id="4VpNGm_nSuCiyjVT2MGh">
    <mxGraphModel dx="3166" dy="1137" grid="1" gridSize="10" guides="1" tooltips="1" connect="1" arrows="1" fold="1" page="1" pageScale="1" pageWidth="1100" pageHeight="1700" math="0" shadow="0">
      <root>
        <mxCell id="0" />
        <mxCell id="1" parent="0" />
        <mxCell id="TJdjvg6xkdOxgYm8qe-P-21" value="" style="edgeStyle=orthogonalEdgeStyle;rounded=0;orthogonalLoop=1;jettySize=auto;html=1;entryX=1;entryY=0.5;entryDx=0;entryDy=0;" parent="1" source="TJdjvg6xkdOxgYm8qe-P-3" target="TJdjvg6xkdOxgYm8qe-P-12" edge="1">
          <mxGeometry relative="1" as="geometry">
            <mxPoint x="150" y="160" as="targetPoint" />
          </mxGeometry>
        </mxCell>
        <mxCell id="TJdjvg6xkdOxgYm8qe-P-22" value="display&amp;nbsp;" style="edgeLabel;html=1;align=center;verticalAlign=middle;resizable=0;points=[];" parent="TJdjvg6xkdOxgYm8qe-P-21" vertex="1" connectable="0">
          <mxGeometry x="-0.325" y="-2" relative="1" as="geometry">
            <mxPoint as="offset" />
          </mxGeometry>
        </mxCell>
        <mxCell id="TJdjvg6xkdOxgYm8qe-P-23" value="" style="edgeStyle=orthogonalEdgeStyle;rounded=0;orthogonalLoop=1;jettySize=auto;html=1;" parent="1" source="TJdjvg6xkdOxgYm8qe-P-3" target="TJdjvg6xkdOxgYm8qe-P-11" edge="1">
          <mxGeometry relative="1" as="geometry" />
        </mxCell>
        <mxCell id="TJdjvg6xkdOxgYm8qe-P-24" value="display" style="edgeLabel;html=1;align=center;verticalAlign=middle;resizable=0;points=[];" parent="TJdjvg6xkdOxgYm8qe-P-23" vertex="1" connectable="0">
          <mxGeometry x="0.12" y="2" relative="1" as="geometry">
            <mxPoint as="offset" />
          </mxGeometry>
        </mxCell>
        <mxCell id="TJdjvg6xkdOxgYm8qe-P-3" value="Product" style="rounded=0;whiteSpace=wrap;html=1;" parent="1" vertex="1">
          <mxGeometry x="350" y="120" width="120" height="60" as="geometry" />
        </mxCell>
        <mxCell id="TJdjvg6xkdOxgYm8qe-P-15" value="" style="edgeStyle=orthogonalEdgeStyle;rounded=0;orthogonalLoop=1;jettySize=auto;html=1;" parent="1" source="TJdjvg6xkdOxgYm8qe-P-4" target="TJdjvg6xkdOxgYm8qe-P-3" edge="1">
          <mxGeometry relative="1" as="geometry" />
        </mxCell>
        <mxCell id="TJdjvg6xkdOxgYm8qe-P-17" value="Text" style="edgeLabel;html=1;align=center;verticalAlign=middle;resizable=0;points=[];" parent="TJdjvg6xkdOxgYm8qe-P-15" vertex="1" connectable="0">
          <mxGeometry x="-0.0571" y="-3" relative="1" as="geometry">
            <mxPoint as="offset" />
          </mxGeometry>
        </mxCell>
        <mxCell id="TJdjvg6xkdOxgYm8qe-P-18" value="search" style="edgeLabel;html=1;align=center;verticalAlign=middle;resizable=0;points=[];" parent="TJdjvg6xkdOxgYm8qe-P-15" vertex="1" connectable="0">
          <mxGeometry x="-0.1" y="-3" relative="1" as="geometry">
            <mxPoint as="offset" />
          </mxGeometry>
        </mxCell>
        <mxCell id="TJdjvg6xkdOxgYm8qe-P-4" value="User" style="rounded=0;whiteSpace=wrap;html=1;" parent="1" vertex="1">
          <mxGeometry x="350" y="340" width="120" height="60" as="geometry" />
        </mxCell>
        <mxCell id="TJdjvg6xkdOxgYm8qe-P-27" style="edgeStyle=orthogonalEdgeStyle;rounded=0;orthogonalLoop=1;jettySize=auto;html=1;exitX=0;exitY=0.5;exitDx=0;exitDy=0;entryX=1;entryY=0.5;entryDx=0;entryDy=0;" parent="1" source="TJdjvg6xkdOxgYm8qe-P-6" target="TJdjvg6xkdOxgYm8qe-P-3" edge="1">
          <mxGeometry relative="1" as="geometry" />
        </mxCell>
        <mxCell id="TJdjvg6xkdOxgYm8qe-P-28" value="offers" style="edgeLabel;html=1;align=center;verticalAlign=middle;resizable=0;points=[];" parent="TJdjvg6xkdOxgYm8qe-P-27" vertex="1" connectable="0">
          <mxGeometry x="0.0167" y="-2" relative="1" as="geometry">
            <mxPoint as="offset" />
          </mxGeometry>
        </mxCell>
        <mxCell id="TJdjvg6xkdOxgYm8qe-P-6" value="seller" style="rounded=0;whiteSpace=wrap;html=1;" parent="1" vertex="1">
          <mxGeometry x="720" y="120" width="120" height="60" as="geometry" />
        </mxCell>
        <mxCell id="TJdjvg6xkdOxgYm8qe-P-8" value="user searches for a product&lt;div&gt;products contains the status&lt;/div&gt;&lt;div&gt;a product has a lower price&lt;/div&gt;&lt;div&gt;user get notification of product&lt;/div&gt;&lt;div&gt;every stockcheck can trigger many different notication&lt;/div&gt;&lt;div&gt;&lt;br&gt;&lt;/div&gt;&lt;div&gt;&lt;br&gt;&lt;/div&gt;" style="text;html=1;align=center;verticalAlign=middle;whiteSpace=wrap;rounded=0;" parent="1" vertex="1">
          <mxGeometry x="-490" y="730" width="640" height="110" as="geometry" />
        </mxCell>
        <mxCell id="TJdjvg6xkdOxgYm8qe-P-19" style="edgeStyle=orthogonalEdgeStyle;rounded=0;orthogonalLoop=1;jettySize=auto;html=1;entryX=0;entryY=0.25;entryDx=0;entryDy=0;exitX=1;exitY=0.25;exitDx=0;exitDy=0;" parent="1" source="TJdjvg6xkdOxgYm8qe-P-10" target="TJdjvg6xkdOxgYm8qe-P-4" edge="1">
          <mxGeometry relative="1" as="geometry" />
        </mxCell>
        <mxCell id="TJdjvg6xkdOxgYm8qe-P-20" value="alerts" style="edgeLabel;html=1;align=center;verticalAlign=middle;resizable=0;points=[];" parent="TJdjvg6xkdOxgYm8qe-P-19" vertex="1" connectable="0">
          <mxGeometry x="-0.0333" y="-8" relative="1" as="geometry">
            <mxPoint as="offset" />
          </mxGeometry>
        </mxCell>
        <mxCell id="TJdjvg6xkdOxgYm8qe-P-10" value="notification" style="rounded=0;whiteSpace=wrap;html=1;" parent="1" vertex="1">
          <mxGeometry x="10" y="340" width="120" height="60" as="geometry" />
        </mxCell>
        <mxCell id="TJdjvg6xkdOxgYm8qe-P-11" value="stockcheck history" style="rounded=0;whiteSpace=wrap;html=1;" parent="1" vertex="1">
          <mxGeometry x="350" y="10" width="120" height="60" as="geometry" />
        </mxCell>
        <mxCell id="TJdjvg6xkdOxgYm8qe-P-12" value="price" style="rounded=0;whiteSpace=wrap;html=1;" parent="1" vertex="1">
          <mxGeometry x="-380" y="120" width="120" height="60" as="geometry" />
        </mxCell>
        <mxCell id="TJdjvg6xkdOxgYm8qe-P-29" value="Key" style="swimlane;fontStyle=0;childLayout=stackLayout;horizontal=1;startSize=30;horizontalStack=0;resizeParent=1;resizeParentMax=0;resizeLast=0;collapsible=1;marginBottom=0;whiteSpace=wrap;html=1;" parent="1" vertex="1">
          <mxGeometry x="920" y="70" width="140" height="120" as="geometry" />
        </mxCell>
        <mxCell id="TJdjvg6xkdOxgYm8qe-P-30" value="Object: noun" style="text;strokeColor=none;fillColor=none;align=left;verticalAlign=middle;spacingLeft=4;spacingRight=4;overflow=hidden;points=[[0,0.5],[1,0.5]];portConstraint=eastwest;rotatable=0;whiteSpace=wrap;html=1;" parent="TJdjvg6xkdOxgYm8qe-P-29" vertex="1">
          <mxGeometry y="30" width="140" height="30" as="geometry" />
        </mxCell>
        <mxCell id="TJdjvg6xkdOxgYm8qe-P-31" value="relationship: verbs" style="text;strokeColor=none;fillColor=none;align=left;verticalAlign=middle;spacingLeft=4;spacingRight=4;overflow=hidden;points=[[0,0.5],[1,0.5]];portConstraint=eastwest;rotatable=0;whiteSpace=wrap;html=1;" parent="TJdjvg6xkdOxgYm8qe-P-29" vertex="1">
          <mxGeometry y="60" width="140" height="30" as="geometry" />
        </mxCell>
        <mxCell id="TJdjvg6xkdOxgYm8qe-P-32" value="cardinality" style="text;strokeColor=none;fillColor=none;align=left;verticalAlign=middle;spacingLeft=4;spacingRight=4;overflow=hidden;points=[[0,0.5],[1,0.5]];portConstraint=eastwest;rotatable=0;whiteSpace=wrap;html=1;" parent="TJdjvg6xkdOxgYm8qe-P-29" vertex="1">
          <mxGeometry y="90" width="140" height="30" as="geometry" />
        </mxCell>
        <mxCell id="TJdjvg6xkdOxgYm8qe-P-33" value="" style="endArrow=classic;html=1;rounded=0;exitX=0;exitY=0.75;exitDx=0;exitDy=0;entryX=1;entryY=0.75;entryDx=0;entryDy=0;" parent="1" source="TJdjvg6xkdOxgYm8qe-P-6" target="TJdjvg6xkdOxgYm8qe-P-3" edge="1">
          <mxGeometry width="50" height="50" relative="1" as="geometry">
            <mxPoint x="540" y="240" as="sourcePoint" />
            <mxPoint x="590" y="190" as="targetPoint" />
          </mxGeometry>
        </mxCell>
        <mxCell id="TJdjvg6xkdOxgYm8qe-P-34" value="M:N" style="edgeLabel;html=1;align=center;verticalAlign=middle;resizable=0;points=[];" parent="TJdjvg6xkdOxgYm8qe-P-33" vertex="1" connectable="0">
          <mxGeometry x="0.0267" relative="1" as="geometry">
            <mxPoint as="offset" />
          </mxGeometry>
        </mxCell>
        <mxCell id="TJdjvg6xkdOxgYm8qe-P-35" value="" style="endArrow=classic;html=1;rounded=0;exitX=0;exitY=0.75;exitDx=0;exitDy=0;entryX=1;entryY=0.75;entryDx=0;entryDy=0;" parent="1" source="TJdjvg6xkdOxgYm8qe-P-3" target="TJdjvg6xkdOxgYm8qe-P-12" edge="1">
          <mxGeometry width="50" height="50" relative="1" as="geometry">
            <mxPoint x="270" y="210" as="sourcePoint" />
            <mxPoint x="320" y="160" as="targetPoint" />
          </mxGeometry>
        </mxCell>
        <mxCell id="TJdjvg6xkdOxgYm8qe-P-36" value="1:M" style="edgeLabel;html=1;align=center;verticalAlign=middle;resizable=0;points=[];" parent="TJdjvg6xkdOxgYm8qe-P-35" vertex="1" connectable="0">
          <mxGeometry y="6" relative="1" as="geometry">
            <mxPoint as="offset" />
          </mxGeometry>
        </mxCell>
        <mxCell id="TJdjvg6xkdOxgYm8qe-P-37" value="" style="endArrow=classic;html=1;rounded=0;entryX=0.75;entryY=1;entryDx=0;entryDy=0;exitX=0.75;exitY=0;exitDx=0;exitDy=0;" parent="1" source="TJdjvg6xkdOxgYm8qe-P-3" target="TJdjvg6xkdOxgYm8qe-P-11" edge="1">
          <mxGeometry width="50" height="50" relative="1" as="geometry">
            <mxPoint x="430" y="120" as="sourcePoint" />
            <mxPoint x="480" y="70" as="targetPoint" />
          </mxGeometry>
        </mxCell>
        <mxCell id="TJdjvg6xkdOxgYm8qe-P-38" value="1:1" style="edgeLabel;html=1;align=center;verticalAlign=middle;resizable=0;points=[];" parent="TJdjvg6xkdOxgYm8qe-P-37" vertex="1" connectable="0">
          <mxGeometry x="0.08" y="-2" relative="1" as="geometry">
            <mxPoint as="offset" />
          </mxGeometry>
        </mxCell>
        <mxCell id="TJdjvg6xkdOxgYm8qe-P-39" value="" style="endArrow=classic;html=1;rounded=0;entryX=0.25;entryY=1;entryDx=0;entryDy=0;exitX=0.25;exitY=0;exitDx=0;exitDy=0;" parent="1" source="TJdjvg6xkdOxgYm8qe-P-4" target="TJdjvg6xkdOxgYm8qe-P-3" edge="1">
          <mxGeometry width="50" height="50" relative="1" as="geometry">
            <mxPoint x="390" y="340" as="sourcePoint" />
            <mxPoint x="440" y="290" as="targetPoint" />
          </mxGeometry>
        </mxCell>
        <mxCell id="TJdjvg6xkdOxgYm8qe-P-40" value="1:M" style="edgeLabel;html=1;align=center;verticalAlign=middle;resizable=0;points=[];" parent="TJdjvg6xkdOxgYm8qe-P-39" vertex="1" connectable="0">
          <mxGeometry x="0.025" y="1" relative="1" as="geometry">
            <mxPoint as="offset" />
          </mxGeometry>
        </mxCell>
        <mxCell id="TJdjvg6xkdOxgYm8qe-P-41" value="" style="endArrow=classic;html=1;rounded=0;exitX=1;exitY=0.75;exitDx=0;exitDy=0;entryX=0;entryY=0.75;entryDx=0;entryDy=0;" parent="1" source="TJdjvg6xkdOxgYm8qe-P-10" target="TJdjvg6xkdOxgYm8qe-P-4" edge="1">
          <mxGeometry width="50" height="50" relative="1" as="geometry">
            <mxPoint x="560" y="340" as="sourcePoint" />
            <mxPoint x="610" y="290" as="targetPoint" />
          </mxGeometry>
        </mxCell>
        <mxCell id="TJdjvg6xkdOxgYm8qe-P-42" value="1:M" style="edgeLabel;html=1;align=center;verticalAlign=middle;resizable=0;points=[];" parent="TJdjvg6xkdOxgYm8qe-P-41" vertex="1" connectable="0">
          <mxGeometry x="0.0333" y="2" relative="1" as="geometry">
            <mxPoint as="offset" />
          </mxGeometry>
        </mxCell>
        <mxCell id="TJdjvg6xkdOxgYm8qe-P-43" value="" style="endArrow=classic;html=1;rounded=0;entryX=0.5;entryY=0;entryDx=0;entryDy=0;exitX=0;exitY=0.5;exitDx=0;exitDy=0;" parent="1" source="TJdjvg6xkdOxgYm8qe-P-11" target="TJdjvg6xkdOxgYm8qe-P-10" edge="1">
          <mxGeometry relative="1" as="geometry">
            <mxPoint x="470" y="40" as="sourcePoint" />
            <mxPoint x="570" y="40" as="targetPoint" />
          </mxGeometry>
        </mxCell>
        <mxCell id="TJdjvg6xkdOxgYm8qe-P-44" value="trigger" style="edgeLabel;resizable=0;html=1;;align=center;verticalAlign=middle;" parent="TJdjvg6xkdOxgYm8qe-P-43" connectable="0" vertex="1">
          <mxGeometry relative="1" as="geometry" />
        </mxCell>
        <mxCell id="TJdjvg6xkdOxgYm8qe-P-49" value="" style="endArrow=classic;html=1;rounded=0;entryX=0.25;entryY=0;entryDx=0;entryDy=0;" parent="1" edge="1">
          <mxGeometry width="50" height="50" relative="1" as="geometry">
            <mxPoint x="349" y="30" as="sourcePoint" />
            <mxPoint x="39" y="340" as="targetPoint" />
          </mxGeometry>
        </mxCell>
        <mxCell id="TJdjvg6xkdOxgYm8qe-P-50" value="1:M" style="edgeLabel;html=1;align=center;verticalAlign=middle;resizable=0;points=[];" parent="TJdjvg6xkdOxgYm8qe-P-49" vertex="1" connectable="0">
          <mxGeometry x="0.0387" y="-1" relative="1" as="geometry">
            <mxPoint y="-1" as="offset" />
          </mxGeometry>
        </mxCell>
        <mxCell id="TJdjvg6xkdOxgYm8qe-P-51" value="1:M" style="endArrow=classic;html=1;rounded=0;entryX=-0.008;entryY=0.633;entryDx=0;entryDy=0;exitX=0.25;exitY=1;exitDx=0;exitDy=0;entryPerimeter=0;" parent="1" source="TJdjvg6xkdOxgYm8qe-P-12" target="TJdjvg6xkdOxgYm8qe-P-10" edge="1">
          <mxGeometry width="50" height="50" relative="1" as="geometry">
            <mxPoint x="-340" y="180" as="sourcePoint" />
            <mxPoint x="-290" y="130" as="targetPoint" />
          </mxGeometry>
        </mxCell>
        <mxCell id="TJdjvg6xkdOxgYm8qe-P-52" value="" style="endArrow=classic;html=1;rounded=0;entryX=0;entryY=0.25;entryDx=0;entryDy=0;exitX=0.683;exitY=1.017;exitDx=0;exitDy=0;exitPerimeter=0;" parent="1" source="TJdjvg6xkdOxgYm8qe-P-12" target="TJdjvg6xkdOxgYm8qe-P-10" edge="1">
          <mxGeometry width="50" height="50" relative="1" as="geometry">
            <mxPoint x="-300" y="180" as="sourcePoint" />
            <mxPoint x="10" y="370" as="targetPoint" />
          </mxGeometry>
        </mxCell>
        <mxCell id="TJdjvg6xkdOxgYm8qe-P-53" value="trigger" style="edgeLabel;html=1;align=center;verticalAlign=middle;resizable=0;points=[];" parent="TJdjvg6xkdOxgYm8qe-P-52" vertex="1" connectable="0">
          <mxGeometry x="0.0039" y="-3" relative="1" as="geometry">
            <mxPoint as="offset" />
          </mxGeometry>
        </mxCell>
        <mxCell id="TJdjvg6xkdOxgYm8qe-P-54" value="next step define the attributes for the entities" style="rounded=0;whiteSpace=wrap;html=1;" parent="1" vertex="1">
          <mxGeometry x="910" y="460" width="120" height="60" as="geometry" />
        </mxCell>
        <mxCell id="8oSyop-ZPTbU-onXqtr1-8" value="availability" style="rounded=0;whiteSpace=wrap;html=1;" vertex="1" parent="1">
          <mxGeometry x="620" y="650" width="120" height="60" as="geometry" />
        </mxCell>
        <mxCell id="8oSyop-ZPTbU-onXqtr1-9" value="" style="endArrow=classic;html=1;rounded=0;entryX=0.75;entryY=0;entryDx=0;entryDy=0;" edge="1" parent="1" target="8oSyop-ZPTbU-onXqtr1-8">
          <mxGeometry width="50" height="50" relative="1" as="geometry">
            <mxPoint x="470" y="180" as="sourcePoint" />
            <mxPoint x="520" y="130" as="targetPoint" />
          </mxGeometry>
        </mxCell>
        <mxCell id="8oSyop-ZPTbU-onXqtr1-20" value="Text" style="edgeLabel;html=1;align=center;verticalAlign=middle;resizable=0;points=[];" vertex="1" connectable="0" parent="8oSyop-ZPTbU-onXqtr1-9">
          <mxGeometry x="0.0257" y="3" relative="1" as="geometry">
            <mxPoint y="1" as="offset" />
          </mxGeometry>
        </mxCell>
        <mxCell id="8oSyop-ZPTbU-onXqtr1-27" value="display" style="edgeLabel;html=1;align=center;verticalAlign=middle;resizable=0;points=[];" vertex="1" connectable="0" parent="8oSyop-ZPTbU-onXqtr1-9">
          <mxGeometry x="0.0323" y="4" relative="1" as="geometry">
            <mxPoint y="1" as="offset" />
          </mxGeometry>
        </mxCell>
        <mxCell id="8oSyop-ZPTbU-onXqtr1-19" value="" style="endArrow=classic;html=1;rounded=0;entryX=0.325;entryY=0.017;entryDx=0;entryDy=0;entryPerimeter=0;" edge="1" parent="1" target="8oSyop-ZPTbU-onXqtr1-8">
          <mxGeometry width="50" height="50" relative="1" as="geometry">
            <mxPoint x="450" y="180" as="sourcePoint" />
            <mxPoint x="650" y="640" as="targetPoint" />
          </mxGeometry>
        </mxCell>
        <mxCell id="8oSyop-ZPTbU-onXqtr1-29" value="1:M" style="edgeLabel;html=1;align=center;verticalAlign=middle;resizable=0;points=[];" vertex="1" connectable="0" parent="8oSyop-ZPTbU-onXqtr1-19">
          <mxGeometry x="0.0041" y="1" relative="1" as="geometry">
            <mxPoint as="offset" />
          </mxGeometry>
        </mxCell>
        <mxCell id="8oSyop-ZPTbU-onXqtr1-23" value="" style="endArrow=classic;html=1;rounded=0;entryX=0.5;entryY=1;entryDx=0;entryDy=0;exitX=0;exitY=0.5;exitDx=0;exitDy=0;" edge="1" parent="1" source="8oSyop-ZPTbU-onXqtr1-8" target="TJdjvg6xkdOxgYm8qe-P-10">
          <mxGeometry width="50" height="50" relative="1" as="geometry">
            <mxPoint x="410" y="650" as="sourcePoint" />
            <mxPoint x="450" y="840" as="targetPoint" />
          </mxGeometry>
        </mxCell>
        <mxCell id="8oSyop-ZPTbU-onXqtr1-25" value="triggers" style="edgeLabel;html=1;align=center;verticalAlign=middle;resizable=0;points=[];" vertex="1" connectable="0" parent="8oSyop-ZPTbU-onXqtr1-23">
          <mxGeometry x="0.0391" y="1" relative="1" as="geometry">
            <mxPoint x="1" as="offset" />
          </mxGeometry>
        </mxCell>
        <mxCell id="8oSyop-ZPTbU-onXqtr1-24" value="" style="endArrow=classic;html=1;rounded=0;exitX=0;exitY=0.75;exitDx=0;exitDy=0;entryX=0.25;entryY=1;entryDx=0;entryDy=0;" edge="1" parent="1" source="8oSyop-ZPTbU-onXqtr1-8" target="TJdjvg6xkdOxgYm8qe-P-10">
          <mxGeometry width="50" height="50" relative="1" as="geometry">
            <mxPoint x="60" y="550" as="sourcePoint" />
            <mxPoint x="110" y="500" as="targetPoint" />
          </mxGeometry>
        </mxCell>
        <mxCell id="8oSyop-ZPTbU-onXqtr1-26" value="1:M" style="edgeLabel;html=1;align=center;verticalAlign=middle;resizable=0;points=[];" vertex="1" connectable="0" parent="8oSyop-ZPTbU-onXqtr1-24">
          <mxGeometry x="-0.013" y="-3" relative="1" as="geometry">
            <mxPoint as="offset" />
          </mxGeometry>
        </mxCell>
      </root>
    </mxGraphModel>
  </diagram>
</mxfile>
